<svg xmlns="http://www.w3.org/2000/svg" viewBox="0 0 480 300"><defs><linearGradient id="b" y2="1"><stop stop-color="#33555a"/><stop offset="1" stop-color="#182c35"/></linearGradient></defs><rect width="480" height="300" rx="28" fill="url(#b)"/><circle cx="376" cy="54" r="82" fill="#d8b45f" opacity=".24"/><path d="M92 269c34-100 81-151 146-164 54-11 109 4 161 56l-25 108z" fill="#273e46"/><path d="m174 131 41-83 78 3 37 83-35 86H204z" fill="#9ca7a1" stroke="#182329" stroke-width="10"/><path d="M208 70h76l22 69-55-16-59 16z" fill="#59676a"/><path d="M217 147h80M230 170h54" stroke="#d8b45f" stroke-linecap="round" stroke-width="10"/><path d="m181 269 24-72h93l28 72" fill="#7c4d3a" stroke="#182329" stroke-width="10"/><path d="M125 245 77 121m21 18 51 101" stroke="#d8b45f" stroke-linecap="round" stroke-width="13"/></svg>
