<svg xmlns="http://www.w3.org/2000/svg" viewBox="0 0 480 300"><defs><linearGradient id="b" y2="1"><stop stop-color="#774f65"/><stop offset="1" stop-color="#362e49"/></linearGradient></defs><rect width="480" height="300" rx="28" fill="url(#b)"/><circle cx="240" cy="145" r="86" fill="#d9b666" stroke="#3c2f3c" stroke-width="12"/><circle cx="240" cy="145" r="55" fill="#5e4257"/><path d="m240 91 13 36 39 2-31 24 11 38-32-22-32 22 11-38-31-24 39-2z" fill="#f3d98f"/><g fill="none" stroke="#e8d9b2" stroke-linecap="round" stroke-width="15"><path d="M42 65h90l44 42M438 65h-90l-44 42M42 236h90l44-42M438 236h-90l-44-42"/></g><g fill="#d9b666" stroke="#3c2f3c" stroke-width="7"><circle cx="51" cy="65" r="24"/><rect x="405" y="41" width="48" height="48" rx="8"/><path d="m28 236 23-25 24 25-24 25z"/><path d="m414 256 15-45 22 45z"/></g></svg>
