<svg xmlns="http://www.w3.org/2000/svg" viewBox="0 0 480 300"><defs><linearGradient id="b" y2="1"><stop stop-color="#d7a759"/><stop offset="1" stop-color="#73503a"/></linearGradient></defs><rect width="480" height="300" rx="28" fill="url(#b)"/><path d="M-20 269 155 97l84 54 75-72 186 190z" fill="#59634d"/><path d="M-10 300 160 131l75 48 80-65 181 186" fill="none" stroke="#44342a" stroke-width="55"/><path d="M-10 293 160 131l75 48 80-65 181 179" fill="none" stroke="#c18b50" stroke-width="35"/><path d="M-5 291 160 131l75 48 80-65 179 178" fill="none" stroke="#f0d189" stroke-dasharray="20 18" stroke-width="5"/><path d="m80 69 34-23 49 70-34 23z" fill="#748180" stroke="#332b26" stroke-width="8"/><path d="m367 45 23 17-75 100-23-17z" fill="#748180" stroke="#332b26" stroke-width="8"/></svg>
