<svg xmlns="http://www.w3.org/2000/svg" viewBox="0 0 480 300"><defs><linearGradient id="b" y2="1"><stop stop-color="#8da46a"/><stop offset="1" stop-color="#3f634d"/></linearGradient></defs><rect width="480" height="300" rx="28" fill="url(#b)"/><circle cx="96" cy="72" r="72" fill="#f2d27a" opacity=".34"/><path d="M96 241c28-92 252-92 288 0l-29 36H126z" fill="#9c653c" stroke="#3e3025" stroke-width="9"/><path d="M132 185c26-60 65-54 91-1 29-80 76-63 91 3 34-51 68-26 70 41H105c2-45 10-59 27-43z" fill="#e1bd65" stroke="#4e5137" stroke-width="8"/><g fill="none" stroke="#f7e8a6" stroke-linecap="round" stroke-width="7"><path d="M165 195V72m0 32-30-24m30 66 32-28m54 72V53m0 42-31-25m31 67 34-29m47 88V88m0 37-27-22m27 60 27-25"/></g><path d="M121 236h238" stroke="#d79b54" stroke-width="12"/></svg>
