<svg xmlns="http://www.w3.org/2000/svg" viewBox="0 0 512 512"><defs><linearGradient id="b" y2="1"><stop stop-color="#c97548"/><stop offset="1" stop-color="#8e422f"/></linearGradient><filter id="n"><feTurbulence baseFrequency=".025" numOctaves="4" seed="11"/><feBlend in="SourceGraphic" mode="multiply"/></filter></defs><rect width="512" height="512" fill="url(#b)"/><g fill="none" stroke-linecap="round"><path d="M-20 120c95-60 150 55 250-10s175-12 302-42M-30 270c105-74 188 56 292-16s178-2 270-30M-30 430c120-90 180 36 300-20s168-22 272-54" stroke="#f0a06b" stroke-opacity=".45" stroke-width="26"/><path d="M30 20 150 492M210-20l90 552M390-10l50 530" stroke="#6f3028" stroke-opacity=".28" stroke-width="13"/><path d="m74 178 46-34 52 20 20 54-47 32-56-17zm230 120 54-38 64 25 18 62-55 31-60-22z" stroke="#6b3026" stroke-opacity=".55" stroke-width="7"/></g></svg>
