<svg xmlns="http://www.w3.org/2000/svg" viewBox="0 0 512 512"><defs><linearGradient id="b" y2="1"><stop stop-color="#f1cc63"/><stop offset="1" stop-color="#b9782f"/></linearGradient><filter id="n"><feTurbulence baseFrequency=".025" numOctaves="3" seed="23"/><feBlend in="SourceGraphic" mode="soft-light"/></filter></defs><rect width="512" height="512" fill="url(#b)"/><g fill="none" stroke-linecap="round"><g stroke="#fff0a2" stroke-opacity=".72" stroke-width="8"><path d="M40 530 150-10M120 530 215-10M210 530 290-10M310 530 365-10M410 530 445-10"/></g><g stroke="#7d5526" stroke-opacity=".65" stroke-width="6"><path d="M80 480V80m0 70-30-35m30 90 32-40m-32 95-34-38m34 96 33-42m105 190V55m0 90-32-38m32 95 34-43m-34 100-34-39m34 98 35-44m100 175V70m0 92-30-37m30 96 34-45m-34 104-34-41m34 101 34-44"/></g></g></svg>
