<svg xmlns="http://www.w3.org/2000/svg" viewBox="0 0 512 512"><defs><linearGradient id="b" x2="0" y2="1"><stop stop-color="#315f3b"/><stop offset="1" stop-color="#173c2a"/></linearGradient><filter id="n"><feTurbulence baseFrequency=".035" numOctaves="3" seed="7"/><feBlend in="SourceGraphic" mode="soft-light"/></filter></defs><rect width="512" height="512" fill="url(#b)"/><g opacity=".88"><g fill="#244d32" stroke="#8aaa62" stroke-opacity=".45" stroke-width="5"><path d="m42 190 54-118 54 118h-32l48 88H26l48-88z"/><path d="m190 150 55-120 56 120h-33l48 92H176l47-92z"/><path d="m350 196 57-126 58 126h-34l50 96H334l50-96z"/><path d="m100 370 64-140 64 140h-38l54 104H84l54-104z"/><path d="m302 366 66-144 66 144h-39l56 108H286l56-108z"/></g><g fill="none" stroke="#d4e3a5" stroke-opacity=".2" stroke-width="8"><path d="M0 430c120-80 220-70 330-10s160 40 182 20"/><path d="M0 300c130-60 240-40 350 15s130 45 162 26"/></g></g></svg>
