<svg xmlns="http://www.w3.org/2000/svg" viewBox="0 0 512 512"><defs><linearGradient id="b" y2="1"><stop stop-color="#dceaa7"/><stop offset="1" stop-color="#8eb96f"/></linearGradient><filter id="n"><feTurbulence baseFrequency=".018" numOctaves="3" seed="19"/><feBlend in="SourceGraphic" mode="soft-light"/></filter></defs><rect width="512" height="512" fill="url(#b)"/><g><path d="M-30 180c90-80 170-90 260-12s190 90 312-10v150c-110 82-222 76-318 10S70 250-30 330z" fill="#a8cf7f"/><path d="M-20 370c100-72 178-68 270-4s162 58 282-18v164H-20z" fill="#719f61" opacity=".7"/><g fill="#f7f0d8" stroke="#66864e" stroke-width="5"><path d="M105 180c-18-16-5-42 17-38 7-28 42-23 46 0 27-8 39 24 21 39-7 17-65 19-84-1z"/><path d="M330 326c-17-15-5-39 16-35 7-26 40-21 43 0 25-7 36 23 20 37-7 16-61 18-79-2z"/></g><g stroke="#425f3e" stroke-width="6"><path d="m120 181-6 24m54-23 7 23m170 122-5 24m50-23 7 22"/></g></g></svg>
