<svg xmlns="http://www.w3.org/2000/svg" viewBox="0 0 32 32" data-style="karo-resource-v2">
  <g stroke="#51401f" stroke-width="1.7" stroke-linecap="round" stroke-linejoin="round">
    <path d="M15.8 27V7.2M10.4 27l4.2-6.5M21.6 27l-4.3-6.5" fill="none"/>
    <path d="M14.9 9.2c-4.6-.4-6-2.8-5.9-5.3 4.2.2 6 2.2 5.9 5.3ZM14.9 14.1c-4.7-.2-6.3-2.5-6.5-5 4.2 0 6.2 1.8 6.5 5ZM14.9 19c-4.5.1-6.4-2-6.8-4.5 4.1-.3 6.3 1.5 6.8 4.5ZM16.8 9.2c4.6-.4 6-2.8 5.9-5.3-4.2.2-6 2.2-5.9 5.3ZM16.8 14.1c4.7-.2 6.3-2.5 6.5-5-4.2 0-6.2 1.8-6.5 5ZM16.8 19c4.5.1 6.4-2 6.8-4.5-4.1-.3-6.3 1.5-6.8 4.5Z" fill="#e0b94e"/>
    <path d="M8.8 22.4c4.5 2 9.6 2 14.1 0l-1 3.2c-4 1.5-8.1 1.5-12.1 0Z" fill="#b9852f"/>
  </g>
</svg>
