<svg xmlns="http://www.w3.org/2000/svg" viewBox="0 0 32 32" data-style="karo-resource-v2">
  <g stroke="#344437" stroke-width="1.8" stroke-linecap="round" stroke-linejoin="round">
    <path d="M7.4 20.6a5.1 5.1 0 0 1 1.8-9.8 5.6 5.6 0 0 1 10.4-.8 4.8 4.8 0 0 1 3.3 8.7 5.3 5.3 0 0 1-5.1 3.7H10a4.8 4.8 0 0 1-2.6-1.8Z" fill="#eef1d6"/>
    <path d="M21.2 13.7h4.6l2.2 2.8-2.8 3.2h-4.4Z" fill="#879f61"/>
    <path d="m24.8 14.1 1.7-2M21.8 14.2l-1.3-2.1" fill="none"/>
    <circle cx="25.2" cy="16.5" r=".9" fill="#24352d" stroke="none"/>
    <path d="M10.5 22.1v4.1M17.9 22.1v4.1M8.9 26.2h3.2M16.3 26.2h3.2" fill="none"/>
    <path d="M10.7 13.4c1.4-1.2 3.6-1.2 5 .1M10.2 17.5c1.6 1.2 4.5 1.2 6.2-.2" fill="none" stroke="#b7c494" stroke-width="1.2"/>
  </g>
</svg>
